<svg aria-hidden="true" style="position: absolute; width: 0; height: 0; overflow: hidden;" version="1.1" xmlns="http://www.w3.org/2000/svg" xmlns:xlink="http://www.w3.org/1999/xlink">
<defs>
<symbol id="icon-logo" viewBox="0 0 171 32">
<path d="M0 30.408l3.286-0.433c1.298-0.173 2.204-1.254 2.204-2.552v-22.874c0-1.341-0.95-2.379-2.248-2.552l-3.242-0.389v-0.736h8.217l9.512 22.529 9.515-22.529h8.518v0.734l-3.242 0.389c-1.298 0.173-2.248 1.21-2.248 2.552v22.877c0 1.298 0.909 2.379 2.204 2.552l3.286 0.433v0.734h-13.578v-0.734l2.768-0.345c1.298-0.173 2.248-1.167 2.248-2.508v-22.745l-9.86 23.307h-0.649l-9.86-23.307v22.529c0 1.341 0.95 2.335 2.248 2.508l4.498 0.561v0.734h-13.578v-0.734z"></path>
<path d="M41.66 27.122c-6.666-6.666-6.33-15.992-0.030-22.292s15.594-6.604 22.26 0.062 6.36 15.962 0.062 22.26-15.626 6.636-22.292-0.030zM61.872 7.828c-5.78-5.78-13.516-7.584-19.202-1.896-5.626 5.626-4.832 12.476 0.734 18.040 5.962 5.962 13.698 7.89 19.508 2.080 5.84-5.84 4.708-12.476-1.040-18.224z"></path>
<path d="M69.357 30.408l2.768-0.345c1.298-0.173 2.248-1.167 2.248-2.508v-23.093c0-1.341-0.95-2.336-2.248-2.508l-2.768-0.345v-0.736h25.47l0.865 10.249h-0.734c-1.73-7.221-3.675-8.735-6.875-8.735h-10.638v12.628h5.359c1.167 0 2.292-0.778 2.423-1.947l0.476-4.627h0.734v15.092h-0.734l-0.476-5.060c-0.087-1.125-1.254-1.947-2.423-1.947h-5.359v11.026c0 1.341 0.953 2.075 2.248 2.075h9.255c3.85 0 4.844-1.859 7.481-8.693h0.734l-1.298 10.205h-26.507v-0.732z"></path>
<path d="M102.737 4.982c-0.605-1.73-2.032-2.897-3.85-3.113l-2.163-0.26v-0.736h13.102v0.734l-3.373 0.433c-0.953 0.129-0.994 0.734-0.778 1.254l8.346 25.47 8.737-25.295c0.173-0.778 0.044-1.125-0.821-1.298l-4.455-0.561v-0.736h12.669v0.734l-2.637 0.345c-1.772 0.216-3.201 1.298-3.806 3.026l-9.34 26.162h-2.681l-8.951-26.158z"></path>
<path d="M165.736 28.894c0-1.47 1.167-2.637 2.724-2.637s2.724 1.167 2.724 2.637c0 1.47-1.167 2.637-2.724 2.637-1.558 0.002-2.724-1.167-2.724-2.637z"></path>
<path d="M132.312 30.408l2.768-0.345c1.298-0.173 2.248-1.167 2.248-2.508v-23.093c0-1.341-0.95-2.336-2.248-2.508l-2.768-0.345v-0.736h25.47l0.865 10.249h-0.734c-1.73-7.221-3.675-8.735-6.875-8.735h-10.638v12.628h5.359c1.167 0 2.292-0.778 2.423-1.947l0.476-4.627h0.734v15.092h-0.734l-0.476-5.060c-0.087-1.125-1.254-1.947-2.423-1.947h-5.359v11.026c0 1.341 0.953 2.075 2.248 2.075h9.255c3.85 0 4.844-1.859 7.481-8.693h0.734l-1.298 10.205h-26.507v-0.732z"></path>
</symbol>
</defs>
</svg>
